<svg width="21" height="20" viewBox="0 0 21 20" fill="none" xmlns="http://www.w3.org/2000/svg">
<g clip-path="url(#clip0_1_218)">
<path d="M2.96478 15.0666H4.77628C4.95524 15.0666 5.10238 14.9234 5.10238 14.7464V12.4199C5.10238 12.2429 4.99898 11.9984 4.87172 11.8731L3.19544 10.2266C3.13181 10.165 3.0483 10.1332 2.96478 10.1332V15.0666Z" fill="white"/>
<mask id="mask0_1_218" style="mask-type:luminance" maskUnits="userSpaceOnUse" x="2" y="10" width="4" height="6">
<path d="M2.96478 15.0666H4.77628C4.95524 15.0666 5.10238 14.9234 5.10238 14.7464V12.4199C5.10238 12.2429 4.99898 11.9984 4.87172 11.8731L3.19544 10.2266C3.13181 10.165 3.0483 10.1332 2.96478 10.1332V15.0666Z" fill="white"/>
</mask>
<g mask="url(#mask0_1_218)">
<path d="M5.10238 10.1332H2.96478V15.0666H5.10238V10.1332Z" fill="white"/>
</g>
<path d="M2.73411 10.2247L1.05784 11.8711C0.930574 11.9964 0.829163 12.241 0.829163 12.4179V14.7444C0.829163 14.9214 0.974321 15.0646 1.15328 15.0646H2.96478V10.1312C2.87927 10.1312 2.79774 10.163 2.7361 10.2247" fill="white"/>
<mask id="mask1_1_218" style="mask-type:luminance" maskUnits="userSpaceOnUse" x="0" y="10" width="3" height="6">
<path d="M2.73411 10.2247L1.05784 11.8711C0.930574 11.9964 0.829163 12.241 0.829163 12.4179V14.7444C0.829163 14.9214 0.974321 15.0646 1.15328 15.0646H2.96478V10.1312C2.87927 10.1312 2.79774 10.163 2.7361 10.2247" fill="white"/>
</mask>
<g mask="url(#mask1_1_218)">
<path d="M2.96484 10.1331H0.829224V15.0665H2.96484V10.1331Z" fill="white"/>
</g>
<path d="M2.32648 4.93335C2.14751 4.93335 1.89896 5.03277 1.77169 5.15805L0.0954159 6.80649C-0.031846 6.92977 -0.031846 7.13458 0.0954159 7.25787L1.37599 8.51657L4.92739 5.0288C4.86774 4.97113 4.78621 4.93534 4.69673 4.93534H2.32648V4.93335Z" fill="white"/>
<mask id="mask2_1_218" style="mask-type:luminance" maskUnits="userSpaceOnUse" x="0" y="4" width="5" height="5">
<path d="M2.32648 4.93335C2.14751 4.93335 1.89896 5.03277 1.77169 5.15805L0.0954159 6.80649C-0.031846 6.92977 -0.031846 7.13458 0.0954159 7.25787L1.37599 8.51657L4.92739 5.0288C4.86774 4.97113 4.78621 4.93534 4.69673 4.93534H2.32648V4.93335Z" fill="white"/>
</mask>
<g mask="url(#mask2_1_218)">
<path d="M-1.85532 6.72498L2.44773 2.4975L6.75077 6.72498L2.44773 10.9525L-1.85532 6.72498Z" fill="white"/>
</g>
<path d="M1.37399 8.51658L2.65457 9.7733C2.77984 9.89857 2.98863 9.89857 3.1139 9.7733L4.79018 8.12684C4.91545 8.00157 5.01885 7.75699 5.01885 7.58002V5.25152C5.01885 5.16403 4.98306 5.08449 4.92341 5.02682L1.37399 8.51658Z" fill="white"/>
<mask id="mask3_1_218" style="mask-type:luminance" maskUnits="userSpaceOnUse" x="1" y="5" width="5" height="5">
<path d="M1.37399 8.51658L2.65457 9.7733C2.77984 9.89857 2.98863 9.89857 3.1139 9.7733L4.79018 8.12684C4.91545 8.00157 5.01885 7.75699 5.01885 7.58002V5.25152C5.01885 5.16403 4.98306 5.08449 4.92341 5.02682L1.37399 8.51658Z" fill="white"/>
</mask>
<g mask="url(#mask3_1_218)">
<path d="M7.50043 7.46265L3.19937 11.6881L-1.10367 7.46265L3.19937 3.23517L7.50043 7.46265Z" fill="white"/>
</g>
<path d="M5.02283 2.83353V4.6132C5.02283 4.78819 5.16799 4.93335 5.34894 4.93335H7.71919C7.89815 4.93335 8.1487 4.83194 8.27397 4.70666L9.95025 3.06021C10.0139 2.99857 10.0457 2.91505 10.0457 2.83353H5.02283Z" fill="white"/>
<mask id="mask4_1_218" style="mask-type:luminance" maskUnits="userSpaceOnUse" x="5" y="2" width="6" height="3">
<path d="M5.02283 2.83353V4.6132C5.02283 4.78819 5.16799 4.93335 5.34894 4.93335H7.71919C7.89815 4.93335 8.1487 4.83194 8.27397 4.70666L9.95025 3.06021C10.0139 2.99857 10.0457 2.91505 10.0457 2.83353H5.02283Z" fill="white"/>
</mask>
<g mask="url(#mask4_1_218)">
<path d="M10.0457 2.83353H5.02283V4.93335H10.0457V2.83353Z" fill="white"/>
</g>
<path d="M5.34695 0.737671C5.16799 0.737671 5.02084 0.880841 5.02084 1.05583V2.8355H10.0437C10.0437 2.75398 10.0119 2.67046 9.94826 2.61081L8.27199 0.964356C8.14671 0.839083 7.89617 0.737671 7.7172 0.737671H5.34695Z" fill="white"/>
<mask id="mask5_1_218" style="mask-type:luminance" maskUnits="userSpaceOnUse" x="5" y="0" width="6" height="3">
<path d="M5.34695 0.737671C5.16799 0.737671 5.02084 0.880841 5.02084 1.05583V2.8355H10.0437C10.0437 2.75398 10.0119 2.67046 9.94826 2.61081L8.27199 0.964356C8.14671 0.839083 7.89617 0.737671 7.7172 0.737671H5.34695Z" fill="white"/>
</mask>
<g mask="url(#mask5_1_218)">
<path d="M10.0457 0.737671H5.0228V2.8355H10.0457V0.737671Z" fill="white"/>
</g>
<path d="M12.8673 0.0934274L11.5868 1.35014L15.1382 4.8399C15.1958 4.78223 15.2336 4.70269 15.2336 4.6152V2.28671C15.2336 2.11172 15.1302 1.86515 15.0029 1.74187L13.3267 0.0934274C13.265 0.0297965 13.1795 -3.05176e-05 13.096 -3.05176e-05C13.0125 -3.05176e-05 12.931 0.0297965 12.8673 0.0934274Z" fill="white"/>
<mask id="mask6_1_218" style="mask-type:luminance" maskUnits="userSpaceOnUse" x="11" y="0" width="5" height="5">
<path d="M12.8673 0.0934274L11.5868 1.35014L15.1382 4.8399C15.1958 4.78223 15.2336 4.70269 15.2336 4.6152V2.28671C15.2336 2.11172 15.1302 1.86515 15.0029 1.74187L13.3267 0.0934274C13.265 0.0297965 13.1795 -3.05176e-05 13.096 -3.05176e-05C13.0125 -3.05176e-05 12.931 0.0297965 12.8673 0.0934274Z" fill="white"/>
</mask>
<g mask="url(#mask6_1_218)">
<path d="M13.4102 -1.79169L17.6973 2.4179L13.4102 6.62947L9.12103 2.4179L13.4102 -1.79169Z" fill="white"/>
</g>
<path d="M10.3062 2.60883C10.1789 2.73211 10.1789 2.93692 10.3062 3.06021L11.9824 4.70666C12.1097 4.83193 12.3603 4.93335 12.5372 4.93335H14.9095C14.997 4.93335 15.0785 4.89755 15.1381 4.8379L11.5887 1.35013L10.3062 2.60883Z" fill="white"/>
<mask id="mask7_1_218" style="mask-type:luminance" maskUnits="userSpaceOnUse" x="10" y="1" width="6" height="4">
<path d="M10.3062 2.60883C10.1789 2.73211 10.1789 2.93692 10.3062 3.06021L11.9824 4.70666C12.1097 4.83193 12.3603 4.93335 12.5372 4.93335H14.9095C14.997 4.93335 15.0785 4.89755 15.1381 4.8379L11.5887 1.35013L10.3062 2.60883Z" fill="white"/>
</mask>
<g mask="url(#mask7_1_218)">
<path d="M12.6586 7.36927L8.35553 3.14179L12.6586 -1.08569L16.9616 3.14179L12.6586 7.36927Z" fill="white"/>
</g>
<path d="M15.508 4.93335C15.331 4.93335 15.1819 5.07652 15.1819 5.2515V7.58C15.1819 7.75498 15.2873 8.00155 15.4125 8.12683L17.0908 9.77328C17.1544 9.83492 17.236 9.86674 17.3215 9.86674V4.93335H15.51H15.508Z" fill="white"/>
<mask id="mask8_1_218" style="mask-type:luminance" maskUnits="userSpaceOnUse" x="15" y="4" width="3" height="6">
<path d="M15.508 4.93335C15.331 4.93335 15.1819 5.07652 15.1819 5.2515V7.58C15.1819 7.75498 15.2873 8.00155 15.4125 8.12683L17.0908 9.77328C17.1544 9.83492 17.236 9.86674 17.3215 9.86674V4.93335H15.51H15.508Z" fill="white"/>
</mask>
<g mask="url(#mask8_1_218)">
<path d="M17.3195 4.93335H15.1819V9.86674H17.3195V4.93335Z" fill="white"/>
</g>
<path d="M17.3195 4.93335V9.86674C17.403 9.86674 17.4865 9.83492 17.5482 9.77328L19.2264 8.12683C19.3517 8.00155 19.4571 7.75697 19.4571 7.58V5.2515C19.4571 5.07652 19.3099 4.93335 19.133 4.93335H17.3215H17.3195Z" fill="white"/>
<mask id="mask9_1_218" style="mask-type:luminance" maskUnits="userSpaceOnUse" x="17" y="4" width="3" height="6">
<path d="M17.3195 4.93335V9.86674C17.403 9.86674 17.4865 9.83492 17.5482 9.77328L19.2264 8.12683C19.3517 8.00155 19.4571 7.75697 19.4571 7.58V5.2515C19.4571 5.07652 19.3099 4.93335 19.133 4.93335H17.3215H17.3195Z" fill="white"/>
</mask>
<g mask="url(#mask9_1_218)">
<path d="M19.4551 4.93335H17.3195V9.86674H19.4551V4.93335Z" fill="white"/>
</g>
<path d="M17.0888 10.2246L15.4106 11.8711C15.2853 11.9964 15.1799 12.241 15.1799 12.4179V14.7464C15.1799 14.8339 15.2177 14.9154 15.2773 14.9731L18.8287 11.4853L17.5482 10.2266C17.4865 10.165 17.403 10.1332 17.3195 10.1332C17.236 10.1332 17.1525 10.165 17.0888 10.2266" fill="white"/>
<mask id="mask10_1_218" style="mask-type:luminance" maskUnits="userSpaceOnUse" x="15" y="10" width="4" height="5">
<path d="M17.0888 10.2246L15.4106 11.8711C15.2853 11.9964 15.1799 12.241 15.1799 12.4179V14.7464C15.1799 14.8339 15.2177 14.9154 15.2773 14.9731L18.8287 11.4853L17.5482 10.2266C17.4865 10.165 17.403 10.1332 17.3195 10.1332C17.236 10.1332 17.1525 10.165 17.0888 10.2266" fill="white"/>
</mask>
<g mask="url(#mask10_1_218)">
<path d="M21.2924 12.5532L17.0053 16.7627L12.7202 12.5532L17.0053 8.34158L21.2924 12.5532Z" fill="white"/>
</g>
<path d="M15.2793 14.9731C15.339 15.0308 15.4185 15.0666 15.508 15.0666H17.8783C18.0572 15.0666 18.3078 14.9652 18.433 14.8399L20.1093 13.1934C20.2366 13.0702 20.2366 12.8654 20.1093 12.7401L18.8307 11.4834L15.2793 14.9711V14.9731Z" fill="white"/>
<mask id="mask11_1_218" style="mask-type:luminance" maskUnits="userSpaceOnUse" x="15" y="11" width="6" height="5">
<path d="M15.2793 14.9731C15.339 15.0308 15.4185 15.0666 15.508 15.0666H17.8783C18.0572 15.0666 18.3078 14.9652 18.433 14.8399L20.1093 13.1934C20.2366 13.0702 20.2366 12.8654 20.1093 12.7401L18.8307 11.4834L15.2793 14.9711V14.9731Z" fill="white"/>
</mask>
<g mask="url(#mask11_1_218)">
<path d="M13.4539 13.2749L17.757 9.04745L22.06 13.2749L17.757 17.5004L13.4539 13.2749Z" fill="white"/>
</g>
<path d="M10.2366 17.1644C10.2366 17.2459 10.2684 17.3275 10.332 17.3891L12.0083 19.0355C12.1336 19.1608 12.3861 19.2622 12.5631 19.2622H14.9333C15.1123 19.2622 15.2575 19.1191 15.2575 18.9421V17.1644H10.2346H10.2366Z" fill="white"/>
<mask id="mask12_1_218" style="mask-type:luminance" maskUnits="userSpaceOnUse" x="10" y="17" width="6" height="3">
<path d="M10.2366 17.1644C10.2366 17.2459 10.2684 17.3275 10.332 17.3891L12.0083 19.0355C12.1336 19.1608 12.3861 19.2622 12.5631 19.2622H14.9333C15.1123 19.2622 15.2575 19.1191 15.2575 18.9421V17.1644H10.2346H10.2366Z" fill="white"/>
</mask>
<g mask="url(#mask12_1_218)">
<path d="M15.2594 17.1644H10.2365V19.2622H15.2594V17.1644Z" fill="white"/>
</g>
<path d="M12.5651 15.0666C12.3861 15.0666 12.1356 15.168 12.0103 15.2933L10.334 16.9397C10.2724 17.0014 10.2386 17.0829 10.2386 17.1664H15.2615V15.3867C15.2615 15.2117 15.1143 15.0666 14.9373 15.0666H12.5671H12.5651Z" fill="white"/>
<mask id="mask13_1_218" style="mask-type:luminance" maskUnits="userSpaceOnUse" x="10" y="15" width="6" height="3">
<path d="M12.5651 15.0666C12.3861 15.0666 12.1356 15.168 12.0103 15.2933L10.334 16.9397C10.2724 17.0014 10.2386 17.0829 10.2386 17.1664H15.2615V15.3867C15.2615 15.2117 15.1143 15.0666 14.9373 15.0666H12.5671H12.5651Z" fill="white"/>
</mask>
<g mask="url(#mask13_1_218)">
<path d="M15.2595 15.0667H10.2366V17.1665H15.2595V15.0667Z" fill="white"/>
</g>
<path d="M5.34693 15.0666C5.25944 15.0666 5.17593 15.1024 5.11627 15.16L8.66966 18.6498L9.95024 17.3911C10.0755 17.2678 10.0755 17.063 9.95024 16.9397L8.27396 15.2933C8.14868 15.17 7.89814 15.0666 7.71918 15.0666H5.34892H5.34693Z" fill="white"/>
<mask id="mask14_1_218" style="mask-type:luminance" maskUnits="userSpaceOnUse" x="5" y="15" width="6" height="4">
<path d="M5.34693 15.0666C5.25944 15.0666 5.17593 15.1024 5.11627 15.16L8.66966 18.6498L9.95024 17.3911C10.0755 17.2678 10.0755 17.063 9.95024 16.9397L8.27396 15.2933C8.14868 15.17 7.89814 15.0666 7.71918 15.0666H5.34892H5.34693Z" fill="white"/>
</mask>
<g mask="url(#mask14_1_218)">
<path d="M7.59782 21.0837L3.29279 16.8563L7.59782 12.6308L11.9009 16.8563L7.59782 21.0837Z" fill="white"/>
</g>
<path d="M5.02283 15.3867V17.7152C5.02283 17.8922 5.12822 18.1388 5.25349 18.262L6.92977 19.9085C7.05703 20.0318 7.26383 20.0318 7.38911 19.9085L8.66968 18.6518L5.11629 15.162C5.05664 15.2197 5.02084 15.3012 5.02084 15.3887" fill="white"/>
<mask id="mask15_1_218" style="mask-type:luminance" maskUnits="userSpaceOnUse" x="5" y="15" width="4" height="6">
<path d="M5.02283 15.3867V17.7152C5.02283 17.8922 5.12822 18.1388 5.25349 18.262L6.92977 19.9085C7.05703 20.0318 7.26383 20.0318 7.38911 19.9085L8.66968 18.6518L5.11629 15.162C5.05664 15.2197 5.02084 15.3012 5.02084 15.3887" fill="white"/>
</mask>
<g mask="url(#mask15_1_218)">
<path d="M6.84622 13.3684L11.1493 17.5959L6.84622 21.8214L2.54318 17.5959L6.84622 13.3684Z" fill="white"/>
</g>
</g>
<defs>
<clipPath id="clip0_1_218">
<rect width="20.2048" height="20" fill="white"/>
</clipPath>
</defs>
</svg>
